<?xml version="1.0" encoding="UTF-8"?>
<svg xmlns="http://www.w3.org/2000/svg" xmlns:xlink="http://www.w3.org/1999/xlink" width="549.92126pt" height="549.92126pt" viewBox="0 0 549.92126 549.92126" version="1.1">
<g id="surface48">
<path style=" stroke:none;fill-rule:nonzero;fill:rgb(100%,100%,100%);fill-opacity:1;" d="M 0 0 L 549.921875 0 L 549.921875 549.921875 L 0 549.921875 Z M 0 0 "/>
<path style=" stroke:none;fill-rule:nonzero;fill:rgb(100%,100%,100%);fill-opacity:1;" d="M 113.386719 113.386719 L 436.535156 113.386719 L 436.535156 436.535156 L 113.386719 436.535156 Z M 113.386719 113.386719 "/>
<path style=" stroke:none;fill-rule:nonzero;fill:rgb(0%,0%,0%);fill-opacity:1;" d="M 113.386719 113.386719 L 255.117188 113.386719 L 255.117188 255.117188 L 113.386719 255.117188 Z M 113.386719 113.386719 "/>
<path style=" stroke:none;fill-rule:nonzero;fill:rgb(100%,100%,100%);fill-opacity:1;" d="M 184.253906 148.820312 L 201.96875 148.820312 L 201.96875 201.96875 L 219.683594 201.96875 L 219.683594 219.683594 L 184.253906 219.683594 L 184.253906 201.96875 L 166.535156 201.96875 L 166.535156 219.683594 L 148.820312 219.683594 L 148.820312 166.535156 L 184.253906 166.535156 Z M 184.253906 148.820312 "/>
<path style=" stroke:none;fill-rule:nonzero;fill:rgb(0%,0%,0%);fill-opacity:1;" d="M 148.820312 148.820312 Z M 113.386719 294.804688 L 255.117188 294.804688 L 255.117188 436.535156 L 113.386719 436.535156 Z M 113.386719 294.804688 "/>
<path style=" stroke:none;fill-rule:nonzero;fill:rgb(100%,100%,100%);fill-opacity:1;" d="M 166.535156 330.234375 L 184.253906 330.234375 L 184.253906 347.953125 L 166.535156 347.953125 Z M 166.535156 330.234375 "/>
<path style=" stroke:none;fill-rule:nonzero;fill:rgb(100%,100%,100%);fill-opacity:1;" d="M 148.820312 347.953125 L 166.535156 347.953125 L 166.535156 365.667969 L 148.820312 365.667969 Z M 148.820312 347.953125 "/>
<path style=" stroke:none;fill-rule:nonzero;fill:rgb(100%,100%,100%);fill-opacity:1;" d="M 184.253906 347.953125 L 219.683594 347.953125 L 219.683594 365.667969 L 201.96875 365.667969 L 201.96875 383.386719 L 184.253906 383.386719 L 184.253906 401.101562 L 166.535156 401.101562 L 166.535156 365.667969 L 184.253906 365.667969 Z M 184.253906 347.953125 "/>
<path style=" stroke:none;fill-rule:nonzero;fill:rgb(0%,0%,0%);fill-opacity:1;" d="M 148.820312 330.234375 Z M 294.804688 113.386719 L 436.535156 113.386719 L 436.535156 255.117188 L 294.804688 255.117188 Z M 294.804688 113.386719 "/>
<path style=" stroke:none;fill-rule:nonzero;fill:rgb(100%,100%,100%);fill-opacity:1;" d="M 365.667969 148.820312 L 383.386719 148.820312 L 383.386719 166.535156 L 365.667969 166.535156 Z M 365.667969 148.820312 "/>
<path style=" stroke:none;fill-rule:nonzero;fill:rgb(100%,100%,100%);fill-opacity:1;" d="M 330.234375 166.535156 L 365.667969 166.535156 L 365.667969 184.253906 L 330.234375 184.253906 Z M 330.234375 166.535156 "/>
<path style=" stroke:none;fill-rule:nonzero;fill:rgb(100%,100%,100%);fill-opacity:1;" d="M 383.386719 166.535156 L 401.101562 166.535156 L 401.101562 219.683594 L 330.234375 219.683594 L 330.234375 201.96875 L 365.667969 201.96875 L 365.667969 184.253906 L 383.386719 184.253906 Z M 383.386719 166.535156 "/>
<path style=" stroke:none;fill-rule:nonzero;fill:rgb(0%,0%,0%);fill-opacity:1;" d="M 330.234375 148.820312 Z M 294.804688 294.804688 L 436.535156 294.804688 L 436.535156 436.535156 L 294.804688 436.535156 Z M 294.804688 294.804688 "/>
<path style=" stroke:none;fill-rule:nonzero;fill:rgb(100%,100%,100%);fill-opacity:1;" d="M 347.953125 330.234375 L 365.667969 330.234375 L 365.667969 347.953125 L 347.953125 347.953125 Z M 347.953125 330.234375 "/>
<path style=" stroke:none;fill-rule:nonzero;fill:rgb(100%,100%,100%);fill-opacity:1;" d="M 383.386719 330.234375 L 401.101562 330.234375 L 401.101562 347.953125 L 383.386719 347.953125 Z M 383.386719 330.234375 "/>
<path style=" stroke:none;fill-rule:nonzero;fill:rgb(100%,100%,100%);fill-opacity:1;" d="M 365.667969 365.667969 L 383.386719 365.667969 L 383.386719 401.101562 L 330.234375 401.101562 L 330.234375 383.386719 L 365.667969 383.386719 Z M 365.667969 365.667969 "/>
</g>
</svg>
